<svg height="184.637236" viewBox="0 0 34.881801 11.800145" width="541.60256" xmlns="http://www.w3.org/2000/svg" xmlns:xlink="http://www.w3.org/1999/xlink"><symbol id="a" overflow="visible"/><g transform="translate(-166.36953 -13.826466)"><g fill="#2eab47"><path d="m168.79177 23.748345c-.11025.627008-.70556 1.135504-1.33395 1.135504-.62838 0-1.04868-.508496-.93844-1.135504.10611-.627007.70556-1.136881 1.33256-1.136881.62563 0 1.04869.509874.93983 1.136881" fill-rule="evenodd"/><path d="m173.53359 25.341358.9412-4.827268h-1.86724l-.93982 4.827268z" fill-rule="evenodd"/><path d="m174.78485 19.031321c-.0882.51952-.58291.938444-1.10105.938444-.51952 0-.86679-.418924-.77583-.938444.0909-.518143.58291-.937066 1.10105-.937066.51952 0 .86678.418923.77583.937066" fill-rule="evenodd"/><path d="m178.76325 20.376286c-.82269.03169-1.59853.464399-1.69085.518142l.0744-.380338h-1.86724l-.93982 4.827268h1.86586l.63803-3.270085c.42857-.440972.93156-.490582 1.35186-.417546.3073.0565.35691.263206.34864.41479l-.63527 3.272841h1.86724l.71658-3.693143.007-.03445c.0124-.07166.0165-.141938.0165-.205328-.0124-.796506-.95222-1.063845-1.75286-1.032151"/><path d="m182.06916 22.211833 1.17823-1.196137.40652-2.064301h-1.86725l-1.25539 6.389963h1.86586l.46303-2.36058z" fill-rule="evenodd"/><path d="m184.75772 22.211833 3.37481-3.259061h-2.38814l-3.21496 3.259061 3.21496 3.129525h2.38814z" fill-rule="evenodd"/><path d="m170.1822 18.980333s-.5333 2.717492-.79099 3.997689c-.19843.999078-.50436 2.112533-1.71566 2.188325-.0468.0083-.0923.0083-.14607.0083-.34313 0-.6711-.106109-.93569-.290766.24943.305924.64768.480935 1.08176.556727.79375.146072 1.73082-.03032 2.27101-.359668.97703-.577398 1.25953-1.531 1.46486-2.559017.17501-.87781.69866-3.541558.69866-3.541558h-1.92788" fill-rule="evenodd"/><path d="m190.59371 23.791065c-.91089 0-1.58061-.737251-1.49655-1.646756.0827-.909505.88608-1.646756 1.79558-1.646756.90951 0 1.58061.737251 1.49655 1.646756-.0841.909505-.88883 1.646756-1.79558 1.646756zm.45613-4.996767c-1.84933 0-3.48506 1.499306-3.65594 3.350011-.16812 1.849327 1.19338 3.350011 3.04409 3.350011 1.84795 0 3.4823-1.500684 3.65318-3.350011.17088-1.850705-1.19201-3.350011-3.04133-3.350011" fill-rule="evenodd"/></g><path d="m191.77744 16.978044c-.0537-.100597-.1378-.192926-.24667-.27423-.11024-.07993-.23289-.14745-.37207-.195681-.13642-.05099-.28112-.08682-.42995-.111621-.44372-.06477-.85851-.209462-1.24436-.431326-.0331-.01929-.0689-.0565-.10611-.112999-.0358-.05788-.0565-.111622-.0565-.163987 0-.194303.0345-.388607.0978-.584288.0648-.192925.14883-.345888.2508-.456131.16123-.183279.45475-.341753.87919-.476801.42306-.139182.89848-.206706 1.42903-.206706.31695 0 .56224.0248.73449.07441.17363.04685.25907.122646.25907.223242 0 .165365-.022.292145-.0675.383095-.0441.08957-.0923.150206-.1447.179145-.0524.03032-.14331.07028-.27285.121267-.13918.04823-.25907.09784-.36242.151585-.10198.05236-.18879.103352-.26183.150206-.073.04961-.11851.07441-.13505.07441l-.0317-.02756c0-.03583.0372-.09371.11714-.169498.0772-.07579.17363-.141938.28663-.199816.12264-.06339.18328-.103353.18328-.121267 0-.02894-.0675-.0441-.2012-.0441-.4079 0-.7841.03721-1.12999.110243-.34451.07166-.61736.166743-.81442.286632-.20119.117134-.30041.238401-.30041.363802 0 .07717.0413.130914.1254.162609.0813.03169.26321.08544.5457.158475.28112.07579.53192.162608.75379.259071.3197.136425.55673.278363.71107.425814.15296.14745.23013.312814.23013.494715 0 .124024-.0303.250803-.0896.376205-.0606.128157-.15021.24529-.26596.350021-.11851.103353-.25081.191548-.40377.26045-.12816.05512-.29214.106109-.4892.155718-.19706.04685-.41066.08544-.64079.112999-.23013.02756-.44924.04134-.65732.04134-.38585 0-.69316-.03583-.93018-.108865-.23289-.07304-.3514-.183279-.3514-.330729 0-.06477.0413-.168121.11989-.308681.0786-.139181.17225-.232888.27974-.281119.0937-.03859.18741-.05788.27561-.06477.0868-.0055.13091.0041.13091.03032l-.011.02205-.022.01654-.0262.0124c-.0441.01791-.0799.03169-.10886.03996l-.0648.03032-.0248.04272c0 .04548.22738.0689.68351.0689.39687 0 .72071-.01516.97289-.0441.25218-.02756.47543-.0813.66973-.15434.1943-.07579.37069-.179145.52779-.310059" fill="#7ac251"/><path d="m194.16972 16.017551c-.18191.110243-.33762.209462-.46854.299034-.12953.08819-.2384.179145-.32935.270096-.0896.09095-.15158.184657-.1819.275608-.0537.246669-.0827.380338-.0827.399631 0 .144694.10197.216352.30592.216352.0923 0 .25081-.08131.47405-.243913-.04-.103353-.0565-.202572-.0565-.296278 0-.137804.0289-.279742.0841-.424436.0593-.143316.14331-.310059.25494-.496094zm.68075.866786v.221864c-.14608.132292-.26183.220486-.35002.264584-.0868.0441-.21498.06201-.37896.05236-.28802.340375-.53744.508496-.75793.508496-.12264 0-.23426-.04134-.33486-.121267-.10197-.0813-.18328-.192925-.24253-.334863-.0606-.14056-.0923-.296279-.0923-.469911 0-.141938.0482-.299035.14056-.469911.0937-.172255.21635-.332108.3638-.479558.14883-.150206.3073-.267339.4768-.361046.1695-.09095.32797-.136426.47267-.136426.10335 0 .18328.01791.24253.04823.0606.03032.0896.07579.0896.133669 0 .0441-.0248.09508-.0744.151585.0827.01653.13918.04547.17226.08682.0289.03996.0455.117133.0455.223242 0 .107487-.0262.238401-.0758.399631-.0496.159853-.11713.310059-.20257.451997l.0606.05926h.0482c.0386 0 .073-.0096.11162-.02756.0345-.01929.0675-.03859.0965-.05926.0276-.02067.0923-.0689.18879-.141938" fill="#7ac251"/><path d="m195.43338 16.261464c.11438-.111621.22462-.239779.33348-.381717.10611-.144694.20671-.296278.30041-.460264.0937-.161231.1695-.308681.22187-.438216.0551-.129536.0813-.227377.0813-.292145 0-.05236-.0165-.07717-.0524-.07717-.0138 0-.04.01103-.0772.03583-.13367.110243-.28388.326595-.452.644922-.16536.321083-.28525.642166-.35553.968761zm.98805.593935v.243912c-.46164.609093-.83371.915018-1.12172.915018-.1571 0-.27975-.08682-.36794-.254937-.0896-.172255-.13505-.395497-.13505-.672483 0-.22462.0538-.490582.1571-.800641.10887-.30868.24805-.621494.42444-.939821.17776-.318327.36242-.595313.55259-.832335.19017-.235645.36793-.402388.53054-.496094.0648-.03858.11576-.05926.15296-.05926.0469 0 .0786.02067.0937.06063.0152.03996.0221.110243.0221.209462 0 .305924-.12265.682129-.37207 1.127235s-.59669.901237-1.04042 1.364258c-.0207.114377-.0317.202571-.0317.263205 0 .14056.0289.254937.0896.344509.0606.08682.14469.132292.25355.132292.0537 0 .113-.02343.17639-.06477.0634-.04272.13229-.09784.2012-.161231.0716-.06201.20946-.190169.41478-.37896" fill="#7ac251"/><path d="m198.35757 15.937625c-.57326.261827-.98116.483691-1.22094.66697-.24529.181901-.36656.372071-.36656.564996 0 .0689.0124.128158.0358.172255.0248.04547.0579.06752.0992.06752.0248 0 .0675-.01378.12954-.04547.23151-.136426.44235-.314193.6339-.531923.19017-.220487.4203-.518143.68901-.894347zm-1.58061.363802c.33349-.303168.65871-.529167.97428-.676617.31419-.14745.55673-.220486.7276-.220486.0469 0 .0882.01791.12954.0565.04.03858.0716.08268.0937.135047.0234.04961.0358.08682.0358.113 0 .03721-.0165.06752-.0469.08682-.0317.01791-.0841.03996-.16123.06752.0138.03307.0345.07855.0579.135048.0248.05512.0441.09922.0579.133669.011.03307.0207.06339.0207.08957 0 .05374-.0551.152962-.16123.296278-.10611.143316-.1819.250803-.22462.318327-.0427.0689-.0661.151584-.0661.250803 0 .162608.0758.243913.226.243913.15296 0 .39412-.144694.72209-.432705v.201194c-.55535.618739-.95498.92742-1.19613.92742-.0841 0-.14608-.02618-.18191-.08544-.0345-.05512-.0551-.137804-.0551-.246669 0-.175011.0634-.427192.18879-.756543-.3197.355533-.55948.61047-.7152.760677-.15572.150206-.28525.225998-.38723.225998-.0482 0-.10748-.04134-.17914-.125401-.0744-.08406-.13643-.191548-.19431-.325217-.0565-.132292-.0841-.271474-.0841-.41479 0-.101975.01-.188791.0289-.259071.0207-.0689.0593-.139182.11713-.212218.0579-.07304.14745-.168121.27286-.286632" fill="#7ac251"/><path d="m199.09896 17.144786v-.212217c.11989-.141938.20946-.261828.27147-.361047-.0703-.0248-.12127-.05512-.15434-.08819-.0317-.03583-.0469-.08819-.0469-.158474 0-.07855.0317-.179145.0992-.301791.0648-.119889.14745-.234266.24529-.338997.0951-.106109.1819-.173633.2632-.20395l.0868-.02343c.0469 0 .0675.02067.0675.06339 0 .03721-.0331.112999-.10197.225998.45337-.0689.73863-.104731.85852-.104731.0469 0 .0772.0041.0951.0124.0372.02067.0675.06615.0923.139182.0262.07304.0358.144694.0358.217729 0 .04685-.0193.09646-.0606.150207-.0413.05374-.11163.13367-.21084.235644-.11576.125402-.2136.26045-.29353.409278-.0772.14745-.11851.257693-.11851.333485 0 .103353.0648.15434.19155.15434.13367 0 .36794-.135047.70004-.409277v.221864c-.18328.190169-.33348.343131-.45337.451996-.11713.110244-.22738.198438-.32935.261828-.0992.06615-.19155.09922-.2701.09922-.0909 0-.16812-.04272-.23013-.128158-.062-.08544-.0937-.208084-.0937-.367936 0-.09509.0248-.202572.073-.323839.0482-.121268.11851-.252181.21222-.394119.0951-.141938.19844-.283876.31557-.424436-.0606.01378-.13092.02894-.20671.04134-.0772.01516-.15985.03032-.24529.04547-.0868.01516-.15158.02756-.19844.03583-.13367.272851-.33348.51952-.59393.741384" fill="#7ac251"/><g fill="#fff" transform="matrix(.35277778 0 0 .35277778 -.704178 4.06996)"><use height="100%" width="100%" x="101.121" xlink:href="#a" y="248.14619"/><use height="100%" width="100%" x="102.777" xlink:href="#a" y="248.14619"/></g></g></svg>